<?xml version="1.0" standalone="no"?>
<!DOCTYPE svg PUBLIC "-//W3C//DTD SVG 20010904//EN"
 "http://www.w3.org/TR/2001/REC-SVG-20010904/DTD/svg10.dtd">
<svg version="1.0" xmlns="http://www.w3.org/2000/svg"
 width="1280.000000pt" height="1280.000000pt" viewBox="0 0 1280.000000 1280.000000"
 preserveAspectRatio="xMidYMid meet">
<metadata>
Created by potrace 1.15, written by Peter Selinger 2001-2017
</metadata>
<g transform="translate(0.000000,1280.000000) scale(0.100000,-0.100000)"
fill="#000000" stroke="none">
<path d="M7186 12274 c-11 -28 -7 -32 51 -59 77 -35 205 -166 255 -260 32 -60
39 -67 44 -47 7 24 20 29 26 10 4 -10 -71 -68 -86 -68 -2 0 -6 17 -10 38 -9
57 -60 156 -103 199 -45 45 -99 73 -154 80 -44 6 -99 -13 -99 -33 0 -8 -11
-19 -24 -24 -14 -5 -30 -18 -36 -30 -6 -12 -21 -20 -35 -20 -14 0 -33 -8 -42
-18 -10 -10 -97 -147 -193 -306 -195 -321 -190 -316 -335 -368 -109 -40 -280
-80 -338 -79 -27 0 -58 -6 -71 -14 -13 -9 -163 -44 -333 -80 -954 -197 -1659
-390 -2178 -596 -207 -82 -516 -236 -680 -339 -421 -264 -778 -615 -1096
-1075 -172 -249 -380 -623 -489 -879 -23 -54 -46 -106 -50 -115 -41 -75 -181
-488 -234 -691 -64 -244 -107 -576 -77 -594 7 -5 11 5 11 31 0 207 215 878
392 1227 l24 48 160 53 c170 56 523 193 693 269 57 25 105 46 108 46 2 0 -56
-66 -130 -147 -425 -470 -872 -1043 -1062 -1363 -22 -36 -61 -94 -89 -130 -52
-69 -96 -156 -96 -192 0 -16 9 -10 42 31 23 28 45 51 49 51 4 0 34 26 67 59
157 154 397 281 1042 553 485 204 734 332 1055 543 515 337 902 704 1397 1322
192 240 532 682 842 1093 247 329 457 594 538 681 27 29 44 38 98 48 106 20
334 79 392 101 29 11 56 20 59 20 4 0 -15 -55 -43 -122 -130 -323 -282 -818
-383 -1253 l-42 -179 -75 -12 c-366 -57 -632 -273 -823 -669 -66 -135 -111
-249 -226 -563 -234 -642 -502 -1242 -658 -1472 -255 -378 -654 -901 -816
-1070 -449 -469 -683 -860 -810 -1355 -130 -505 -122 -969 25 -1540 153 -592
410 -1098 759 -1495 283 -321 450 -469 639 -564 305 -154 829 -195 1382 -110
l45 7 -90 -66 c-120 -87 -135 -102 -135 -137 0 -47 36 -64 119 -56 92 8 244
49 331 87 l70 32 90 -87 c72 -69 95 -86 119 -86 36 0 51 22 51 74 0 20 2 36 5
36 3 0 29 -18 58 -40 29 -21 79 -51 110 -65 53 -25 60 -26 81 -11 14 9 26 29
30 50 6 33 -8 189 -20 221 -7 18 -9 18 56 -1 128 -38 248 -55 425 -61 201 -6
343 8 523 52 289 70 645 256 866 451 49 44 121 102 160 130 167 121 331 292
453 474 302 451 447 1015 430 1675 -8 310 -42 569 -112 860 -125 519 -304 917
-657 1459 -124 191 -223 343 -563 871 -258 401 -299 474 -360 655 -68 200
-106 395 -169 882 -62 474 -63 480 -102 597 -121 366 -397 672 -706 782 -48
18 -88 35 -88 40 0 13 175 447 251 620 226 519 535 1076 672 1210 15 15 27 36
27 46 0 10 21 46 48 79 26 33 58 76 71 94 13 19 46 54 72 78 40 35 49 50 49
77 0 123 -131 281 -311 375 -82 42 -123 50 -133 24z m88 -304 c62 -63 138
-192 123 -206 -13 -14 -41 18 -86 97 -44 78 -100 137 -166 174 -14 9 -9 10 23
7 35 -3 50 -13 106 -72z m-187 -27 c22 -16 62 -47 88 -71 46 -40 47 -43 31
-61 -20 -22 -23 -18 69 -67 33 -18 60 -36 60 -41 0 -5 -14 -26 -31 -46 l-31
-38 -75 36 c-149 71 -202 52 -80 -29 38 -25 76 -48 85 -52 25 -9 22 -19 -25
-82 -23 -31 -43 -59 -44 -60 -1 -2 -32 10 -68 27 -112 54 -186 75 -186 52 0
-11 103 -82 160 -111 25 -12 46 -24 48 -25 6 -6 -80 -135 -89 -135 -5 0 -35
13 -67 29 -75 38 -115 46 -131 28 -9 -12 -5 -20 21 -42 18 -15 56 -41 85 -57
30 -17 53 -33 51 -37 -2 -3 -16 -30 -33 -59 -27 -47 -33 -52 -55 -45 -14 4
-47 7 -75 8 -43 0 -50 -3 -50 -19 0 -13 15 -24 53 -39 28 -11 52 -24 52 -30 0
-5 -14 -34 -31 -64 -27 -47 -35 -54 -54 -49 -29 8 -55 -2 -55 -20 0 -8 3 -14
8 -14 4 0 15 -7 25 -14 17 -13 17 -17 -13 -75 -24 -48 -35 -61 -53 -61 -32 0
-62 -24 -54 -43 3 -9 13 -14 21 -11 25 9 27 -12 5 -61 -19 -44 -23 -47 -50
-41 -35 7 -59 -1 -59 -21 0 -8 4 -12 8 -9 4 2 18 -4 32 -14 l24 -18 -35 -83
c-33 -78 -38 -84 -69 -89 -37 -6 -54 -30 -21 -30 11 0 23 -5 26 -10 4 -6 -8
-51 -26 -101 -29 -80 -36 -92 -66 -104 -37 -16 -43 -40 -12 -50 11 -4 18 -12
16 -18 -2 -7 -13 -38 -23 -69 -16 -52 -21 -58 -45 -58 -14 0 -32 -7 -39 -15
-14 -17 -15 -17 22 -32 l26 -12 -28 -88 c-26 -82 -30 -88 -53 -85 -35 4 -40
-11 -13 -37 20 -18 23 -28 16 -49 -4 -15 -13 -52 -20 -82 -20 -92 -19 -90 -54
-90 -30 0 -56 -15 -56 -32 0 -4 16 -10 35 -14 39 -7 41 -14 24 -93 -9 -42 -15
-51 -41 -60 -37 -13 -125 -15 -132 -3 -6 10 51 296 87 437 14 55 35 141 47
190 119 510 446 1475 556 1641 25 38 54 101 66 139 24 80 65 167 146 308 64
111 78 118 149 70z m-1280 -869 c-3 -3 -12 -4 -19 -1 -8 3 -5 6 6 6 11 1 17
-2 13 -5z m-197 -53 c-288 -96 -640 -265 -1005 -481 l-130 -77 -105 -6 c-229
-13 -633 -106 -1359 -312 -90 -25 -165 -44 -167 -42 -9 8 263 162 427 241 397
191 867 348 1560 520 272 68 838 194 874 195 11 0 -32 -17 -95 -38z m119 -28
c-187 -199 -364 -416 -874 -1067 -479 -612 -641 -810 -839 -1025 -405 -440
-891 -807 -1435 -1083 -95 -48 -176 -88 -180 -88 -4 0 1 39 10 88 30 149 51
368 56 582 l5 205 276 275 c242 240 539 519 561 528 4 1 -1 -48 -11 -110 -51
-320 -126 -1046 -98 -963 31 94 162 807 187 1019 16 135 18 141 48 167 91 81
319 267 455 373 158 123 520 386 531 386 4 0 -7 -46 -23 -102 -15 -57 -57
-218 -92 -358 -52 -206 -151 -569 -171 -627 -9 -26 4 -12 28 31 29 53 101 230
152 376 69 200 134 476 150 645 l7 71 117 76 c370 242 710 430 1126 624 48 22
51 16 14 -23z m-1499 -694 c-240 -165 -502 -365 -747 -571 l-101 -85 -78 -7
c-149 -14 -394 -70 -687 -157 -222 -66 -503 -167 -553 -198 -18 -12 -18 -12 1
-7 11 3 74 21 140 40 182 53 449 118 768 186 158 33 295 63 305 66 19 7 -5
-17 -253 -247 -99 -92 -281 -270 -405 -395 l-225 -228 -66 -17 c-87 -23 -195
-68 -441 -185 -300 -143 -533 -244 -536 -233 -5 13 131 264 248 459 336 558
690 976 1070 1262 74 56 78 57 220 88 80 17 235 51 345 75 349 77 1050 221
1084 224 8 0 -32 -31 -89 -70z m1747 -846 c-3 -21 -11 -77 -18 -125 -7 -49
-15 -88 -19 -88 -4 0 -15 9 -25 20 -39 43 -85 16 -85 -50 0 -26 12 -43 68 -95
96 -92 133 -109 236 -103 65 3 96 11 149 36 148 69 264 232 195 275 -13 9 -25
3 -60 -24 -51 -42 -117 -83 -123 -77 -3 2 14 62 36 132 46 145 28 135 159 85
207 -79 418 -290 545 -544 30 -60 70 -153 89 -205 29 -83 34 -112 40 -230 32
-642 90 -999 207 -1280 49 -116 110 -225 242 -429 55 -86 157 -246 227 -356
69 -110 219 -342 332 -515 249 -383 311 -484 403 -665 386 -757 524 -1680 366
-2440 -89 -425 -280 -805 -545 -1084 -70 -73 -210 -190 -304 -252 -42 -29
-118 -92 -169 -140 -141 -136 -256 -204 -378 -225 -22 -3 -98 -26 -170 -50
-294 -98 -613 -117 -921 -54 -102 21 -251 69 -319 102 -24 12 -71 22 -118 25
-66 5 -85 3 -125 -15 -45 -21 -380 -84 -612 -117 -205 -28 -409 -37 -609 -26
-361 21 -522 66 -730 205 -110 74 -154 117 -280 275 -520 653 -863 1462 -932
2195 -16 176 -7 474 21 636 80 477 248 860 565 1286 101 135 305 379 432 517
486 525 933 1283 1231 2087 34 91 98 264 142 385 97 262 179 445 252 562 63
103 199 244 280 292 94 54 244 109 307 110 22 1 23 -2 18 -36z m-3566 -1030
c-5 -59 -13 -178 -16 -263 -9 -248 -25 -434 -38 -446 -7 -7 -127 -62 -267
-124 -383 -168 -645 -300 -805 -406 -37 -24 -33 -17 69 116 273 357 637 788
949 1123 60 65 112 116 114 113 3 -2 0 -53 -6 -113z m3695 -7523 c53 -27 100
-50 106 -52 13 -5 -2 -208 -15 -208 -21 0 -118 83 -145 123 -29 46 -41 57 -59
57 -25 0 -42 -32 -48 -95 -4 -36 -10 -65 -13 -65 -3 0 -38 32 -78 70 -42 41
-80 70 -93 70 -11 0 -43 -9 -70 -20 -54 -21 -211 -63 -217 -58 -1 2 55 43 127
90 l129 87 128 24 c70 14 133 25 139 26 7 0 56 -21 109 -49z"/>
</g>
</svg>
