<svg xmlns="http://www.w3.org/2000/svg" enable-background="new 0 0 128 128" viewBox="0 0 128 128"><path d="M13.7,127h43.5H59c1.7,0,3-1.3,3-3s-1.3-3-3-3h-1.8c-4.3,0-8.3-1.9-10.9-5.3c-2.7-3.3-3.7-7.6-2.7-11.8l21.1-94l0.5,0.5
		C69.4,14.7,75,17,81,17s11.6-2.3,15.8-6.5l0.5-0.5l21.1,94c0.9,4.2-0.1,8.5-2.7,11.8c-2.7,3.3-6.7,5.3-10.9,5.3H104
		c-1.7,0-3,1.3-3,3s1.3,3,3,3h0.8c6.1,0,11.8-2.7,15.6-7.5s5.2-10.9,3.9-16.9L101.9,3.3c-0.2-1.1-1-1.9-2.1-2.2c-1-0.3-2.2,0-3,0.8
		l-4.3,4.3C89.5,9.3,85.4,11,81,11s-8.5-1.7-11.5-4.8l-4.3-4.3c-0.8-0.8-1.9-1.1-3-0.8c-1.1,0.3-1.9,1.2-2.1,2.2l-22.3,99.3
		c-1.3,6,0.1,12.1,3.9,16.9c0.4,0.5,0.9,1,1.3,1.5H13.7c-2.6,0-4.7-2.1-4.7-4.7c0-1.4,0.6-2.8,1.8-3.7s2.6-1.2,4-0.9l11.9,2.8
		c1.6,0.4,3.2-0.6,3.6-2.2c0.4-1.6-0.6-3.2-2.2-3.6l-11.9-2.8c-3.2-0.7-6.5,0-9.1,2.1c-2.6,2-4,5.1-4,8.4C3,122.2,7.8,127,13.7,127z
		"/><path d="M58.4,71.1c-1.6,0.3-2.7,1.9-2.4,3.5l9,45.1c0.8,4.2,4.6,7.3,8.9,7.3h1c2.3,0,4.4-0.9,6-2.3c1.6,1.4,3.7,2.3,6,2.3
		c4.3,0,8-3.1,8.9-7.3l9-45.1c0.3-1.6-0.7-3.2-2.4-3.5c-1.6-0.3-3.2,0.7-3.5,2.4l-9,45.1c-0.3,1.4-1.5,2.4-3,2.4c-1.7,0-3-1.4-3-3
		V84c0-1.7-1.3-3-3-3s-3,1.3-3,3v34c0,1.7-1.4,3-3,3h-1c-1.4,0-2.7-1-3-2.4l-9-45.1C61.6,71.8,60,70.7,58.4,71.1z"/><circle cx="71" cy="34" r="3"/><circle cx="91" cy="34" r="3"/></svg>