<svg xmlns="http://www.w3.org/2000/svg" viewBox="0 0 64 64"><g fill="#222" data-name="Dog"><path d="M48.011 28.8a1 1 0 0 1-1-1v-7.414a1 1 0 0 1 1-1h3.669c1.3 0 3.011-1 4.357-2.549a8.8 8.8 0 0 0 2.287-5.847H48.011a1 1 0 0 1-.959-.718 6.79 6.79 0 0 0-6.76-4.479c-5.428 0-6.567 4.527-6.567 8.325v9.248c0 1.727 2.054 2.593 3.2 2.593 1.259 0 3.509-.815 3.509-2.439 0-2.283.147-7.053.153-7.255a1 1 0 1 1 2 .062c0 .049-.152 4.942-.152 7.193 0 2.9-3.2 4.439-5.509 4.439-2.182 0-5.2-1.6-5.2-4.593v-9.248c0-6.561 3.122-10.325 8.567-10.325a8.911 8.911 0 0 1 8.414 5.2h10.54a1 1 0 0 1 .99.861 10.535 10.535 0 0 1-2.691 8.3c-1.735 2-3.983 3.238-5.866 3.238h-2.669V27.8a1 1 0 0 1-1 1zm2.599 7.235a2.682 2.682 0 1 1 2.682-2.681 2.684 2.684 0 0 1-2.682 2.681zm0-3.363a.682.682 0 1 0 .682.682.682.682 0 0 0-.682-.682z"/><path d="M52.444 60.207H20.8a1 1 0 0 1-1-.932 89.485 89.485 0 0 1 0-8.976c.24-5.746 4.228-10.789 7.881-13.592 3.216-2.469 6.859-5.745 6.9-5.778a1 1 0 0 1 .669-.257h13.526a1 1 0 1 1 0 2H35.629c-.934.831-3.979 3.511-6.729 5.621-3.143 2.413-6.888 7.026-7.1 12.09-.155 3.722-.1 6.473-.046 7.824h29.79a4.77 4.77 0 0 0-.769-3.107 3.006 3.006 0 0 0-2.411-1.007 1 1 0 0 1-.97-1v-15.9a1 1 0 0 1 2 0v14.995a4.635 4.635 0 0 1 2.946 1.666c1.716 2.141 1.113 5.4 1.086 5.542a1 1 0 0 1-.982.811Z"/><path d="M42.508 57.455a1 1 0 0 1-1-1c-.009-.171-.354-1.783-1.293-1.783h-7.949a1 1 0 0 1-.351-1.937 5.983 5.983 0 0 0 3.629-3.177c1.22-2.839-.209-6.282-.223-6.316a1 1 0 0 1 1.839-.785c.073.172 1.78 4.243.228 7.876a7.139 7.139 0 0 1-1.6 2.339h4.432c2.5 0 3.293 2.949 3.293 3.783a1 1 0 0 1-1.005 1zm-21.651 2.752h-4.03c-5.228 0-11.419-4.729-13.136-13.769a1 1 0 0 1 1.965-.373c1.514 7.971 6.766 12.142 11.171 12.142h4.03a1 1 0 0 1 0 2z"/></g></svg>