<svg xmlns="http://www.w3.org/2000/svg" viewBox="0 0 300 300"><path fill="#37382b" d="M217.08 148.483l.54-20a4 4 0 1 0-8-.216l-.54 20a3.977 3.977 0 0 1-4 3.891H193.537a4 4 0 0 0 0 8h11.547A11.938 11.938 0 0 0 217.08 148.483zM219.369 169.722l-11.475-1.282a4 4 0 0 0-.887 7.952l11.476 1.281A11.936 11.936 0 0 0 231.7 167.4l2.756-19.812a4 4 0 0 0-7.924-1.1L223.775 166.3A3.984 3.984 0 0 1 219.369 169.722zM232.8 189.531l-11.447-1.512a4 4 0 1 0-1.049 7.931l11.448 1.513a11.938 11.938 0 0 0 13.422-10l3.154-19.753a4 4 0 1 0-7.9-1.262L237.271 186.2A3.978 3.978 0 0 1 232.8 189.531z"/><path fill="#37382b" d="M280.231,112.493c-21.419-32.887-12.971-54.93-12.893-55.125a4,4,0,0,0-3.888-5.533c-29.146,1.422-44.092,22.462-49.319,31.8C170.2,54.7,108.943,67.583,90.529,72.44a8.011,8.011,0,0,0-4.648,12.138,79.481,79.481,0,0,0,7.267,9.243c-15.414.671-27.079,9.12-31.491,25.642-2.713,10.157-9.493,15.906-18.145,15.4-9.692-.578-21.323-9.609-23.961-28.071C16.829,87.734,22.1,69.7,34.02,57.306,48.36,42.4,71.832,36.151,101.9,39.255c69.821,7.2,115.768-3.867,136.559-32.908a4,4,0,1,0-6.5-4.657c-19,26.534-62.479,36.5-129.234,29.607-22.737-2.345-54.115-.7-74.469,20.464C14.617,65.94,8.559,86.41,11.631,107.922,14.9,130.827,30.2,142.083,43.036,142.848c12.533.732,22.638-7.423,26.35-21.321,4.327-16.2,16.344-19.536,24.694-19.773l-7.952,6.975a8,8,0,0,0,2.914,13.658c17,5.232,22.892,10.613,28.4,15.4,7.388,6.423,17.326,15.057,27.946,18.412-7.4,7.894-19.3,23.738-22.261,46.369a4,4,0,0,0,2.951,4.389c16.289,4.271,40.219,4.811,55.357-4.617,13.577,9.556,29.8,17.86,30.687,23.1,1.8,10.581-20.522,20.538-37.3,7.955-20.25-15.186-56.634-9.993-58.172-9.767a4,4,0,0,0-3.393,4.364c.032.308,3.517,30.7,35.775,33.145a66.662,66.662,0,0,1,17.853,3.584c-1.553,16.52-18.072,25.232-18.239,25.317a4,4,0,0,0,.789,7.432c30.342,8.047,55.734-4.583,62.7-18.572,5.085-10.209,7.794-8.734,24.363-21.589,22.779-17.263,35.047-40.952,35.529-68.547C289.121,166.906,296.156,136.945,280.231,112.493ZM152.567,201.809a62.777,62.777,0,0,1,1.837-13.227,4,4,0,1,0-7.7-2.15,70.967,70.967,0,0,0-2.137,15.208,105.367,105.367,0,0,1-12.936-1.66c3.2-17.321,12.254-30.022,18.481-37.022,3.657,14.573,13.458,25.474,24.315,34.144C167.738,200.415,159.89,201.624,152.567,201.809Zm79.062,49.148c-16.341,12.679-20.488,11.986-26.655,24.371-3.918,7.864-20.441,19.28-44.519,16.179,5.523-4.71,12.108-12.395,14-23.146,5.5,3.445,7.289,6.813,7.378,6.989a4,4,0,0,0,7.279-3.32c-.208-.465-2.207-4.67-8.216-9.02-7.661-5.547-18.18-8.863-31.267-9.853-19.387-1.468-25.661-15.168-27.6-22.074,9.752-.847,34.1-1.71,47.989,8.709a37,37,0,0,0,10.69,5.592c6.271,2.31,19.106,7.458,24.187,11.366a4,4,0,0,0,4.877-6.342,50.422,50.422,0,0,0-7.567-4.544c13.372-3.732,19.237-13.294,17.8-21.767-2.982-17.566-56.875-28.989-62.874-66.7,18.455-2.5,26.694-26.012,31-44.043a4,4,0,1,0-7.781-1.86c-5.228,21.87-12.561,34.461-21.794,37.422-11.78,3.778-26.28-8.828-35.874-17.169-5.446-4.733-12.045-11.085-31.285-17l12.117-10.626c7.295,6.581,13.616,11.184,14.092,11.528a4,4,0,1,0,4.69-6.481c-9.355-6.8-23.137-18.972-29.73-28.989C110.976,75.32,174.228,62,215.466,94.443c29.811,23.452,48.88,60.125,48.579,93.428C263.816,213.245,252.619,235.051,231.629,250.957Zm39.705-75.5c-3.8-31.975-22.786-65.059-50.678-87.108,3.678-6.88,15.126-24.433,37.678-27.967a58.99,58.99,0,0,0-.006,19.039c-3.83,2.5-10.909,7.937-13.726,15.452a4,4,0,0,0,7.49,2.809c1.528-4.074,5.1-7.475,8.041-9.737a92.479,92.479,0,0,0,6.15,16.164,32.615,32.615,0,0,0-8.925,12.667,4,4,0,1,0,7.419,2.992,25.4,25.4,0,0,1,5.389-8.381c3.366,5.8,5.131,7.655,7.456,13.13-2.288,3.376-6.771,10.755-7.714,17.982a4,4,0,0,0,7.934,1.034,27.9,27.9,0,0,1,2.825-8.422C282.893,149.033,278.444,163.325,271.334,175.461Z"/></svg>