<svg xmlns="http://www.w3.org/2000/svg" viewBox="0 0 650 500"><path d="M603.623 277.938h6.672a.5.5 0 0 0 .5-.5v-7.74a.5.5 0 0 0-.5-.5h-6.672a.5.5 0 0 0-.5.5v7.74a.5.5 0 0 0 .5.5zm-11.122 0h6.673a.5.5 0 0 0 .5-.5v-7.74a.5.5 0 0 0-.5-.5h-6.673a.5.5 0 0 0-.5.5v7.74a.5.5 0 0 0 .5.5zm-11.12 0h6.672a.5.5 0 0 0 .5-.5v-7.74a.5.5 0 0 0-.5-.5h-6.673a.5.5 0 0 0-.5.5v7.74a.5.5 0 0 0 .5.5zm-11.122 0h6.673a.5.5 0 0 0 .5-.5v-7.74a.5.5 0 0 0-.5-.5h-6.673a.5.5 0 0 0-.5.5v7.74a.5.5 0 0 0 .5.5zm33.364 11.893h6.672a.5.5 0 0 0 .5-.5v-7.74a.5.5 0 0 0-.5-.5h-6.672a.5.5 0 0 0-.5.5v7.74a.5.5 0 0 0 .5.5zm-11.122 0h6.673a.5.5 0 0 0 .5-.5v-7.74a.5.5 0 0 0-.5-.5h-6.673a.5.5 0 0 0-.5.5v7.74a.5.5 0 0 0 .5.5zm-11.12 0h6.672a.5.5 0 0 0 .5-.5v-7.74a.5.5 0 0 0-.5-.5h-6.673a.5.5 0 0 0-.5.5v7.74a.5.5 0 0 0 .5.5zm22.242 11.893h6.672a.5.5 0 0 0 .5-.5v-7.74a.5.5 0 0 0-.5-.5h-6.672a.5.5 0 0 0-.5.5v7.74a.5.5 0 0 0 .5.5zm-11.122 0h6.673a.5.5 0 0 0 .5-.5v-7.74a.5.5 0 0 0-.5-.5h-6.673a.5.5 0 0 0-.5.5v7.74a.5.5 0 0 0 .5.5zm-11.12 0h6.672a.5.5 0 0 0 .5-.5v-7.74a.5.5 0 0 0-.5-.5h-6.673a.5.5 0 0 0-.5.5v7.74a.5.5 0 0 0 .5.5zm22.242 11.893h6.672a.5.5 0 0 0 .5-.5v-7.74a.5.5 0 0 0-.5-.5h-6.672a.5.5 0 0 0-.5.5v7.74a.5.5 0 0 0 .5.5zm-11.122 0h6.673a.5.5 0 0 0 .5-.5v-7.74a.5.5 0 0 0-.5-.5h-6.673a.5.5 0 0 0-.5.5v7.74a.5.5 0 0 0 .5.5zm-11.12 0h6.672a.5.5 0 0 0 .5-.5v-7.74a.5.5 0 0 0-.5-.5h-6.673a.5.5 0 0 0-.5.5v7.74a.5.5 0 0 0 .5.5zm22.242 11.893h6.672a.5.5 0 0 0 .5-.5v-7.74a.5.5 0 0 0-.5-.5h-6.672a.5.5 0 0 0-.5.5v7.74a.5.5 0 0 0 .5.5zm-11.122 0h6.673a.5.5 0 0 0 .5-.5v-7.74a.5.5 0 0 0-.5-.5h-6.673a.5.5 0 0 0-.5.5v7.74a.5.5 0 0 0 .5.5zm-11.12 0h6.672a.5.5 0 0 0 .5-.5v-7.74a.5.5 0 0 0-.5-.5h-6.673a.5.5 0 0 0-.5.5v7.74a.5.5 0 0 0 .5.5zm22.242 11.894h6.672a.5.5 0 0 0 .5-.5v-7.742a.5.5 0 0 0-.5-.5h-6.672a.5.5 0 0 0-.5.5v7.742a.5.5 0 0 0 .5.5zm-11.122 0h6.673a.5.5 0 0 0 .5-.5v-7.742a.5.5 0 0 0-.5-.5h-6.673a.5.5 0 0 0-.5.5v7.742a.5.5 0 0 0 .5.5zm-11.12 0h6.672a.5.5 0 0 0 .5-.5v-7.742a.5.5 0 0 0-.5-.5h-6.673a.5.5 0 0 0-.5.5v7.742a.5.5 0 0 0 .5.5zm22.242 11.892h6.672a.5.5 0 0 0 .5-.5v-7.74a.5.5 0 0 0-.5-.5h-6.672a.5.5 0 0 0-.5.5v7.74a.5.5 0 0 0 .5.5zm-11.122 0h6.673a.5.5 0 0 0 .5-.5v-7.74a.5.5 0 0 0-.5-.5h-6.673a.5.5 0 0 0-.5.5v7.74a.5.5 0 0 0 .5.5zm-11.12 0h6.672a.5.5 0 0 0 .5-.5v-7.74a.5.5 0 0 0-.5-.5h-6.673a.5.5 0 0 0-.5.5v7.74a.5.5 0 0 0 .5.5zm22.242 11.893h6.672a.5.5 0 0 0 .5-.5v-7.74a.5.5 0 0 0-.5-.5h-6.672a.5.5 0 0 0-.5.5v7.74a.5.5 0 0 0 .5.5zm-11.122 0h6.673a.5.5 0 0 0 .5-.5v-7.74a.5.5 0 0 0-.5-.5h-6.673a.5.5 0 0 0-.5.5v7.74a.5.5 0 0 0 .5.5zm-11.12 0h6.672a.5.5 0 0 0 .5-.5v-7.74a.5.5 0 0 0-.5-.5h-6.673a.5.5 0 0 0-.5.5v7.74a.5.5 0 0 0 .5.5zm22.242 11.893h6.672a.5.5 0 0 0 .5-.5v-7.74a.5.5 0 0 0-.5-.5h-6.672a.5.5 0 0 0-.5.5v7.74a.5.5 0 0 0 .5.5zm-11.122 0h6.673a.5.5 0 0 0 .5-.5v-7.74a.5.5 0 0 0-.5-.5h-6.673a.5.5 0 0 0-.5.5v7.74a.5.5 0 0 0 .5.5zm-11.12 0h6.672a.5.5 0 0 0 .5-.5v-7.74a.5.5 0 0 0-.5-.5h-6.673a.5.5 0 0 0-.5.5v7.74a.5.5 0 0 0 .5.5zM94 377.894a.5.5 0 0 0 .5-.5v-149.34a.5.5 0 0 0-1 0v149.34a.5.5 0 0 0 .5.5zm7.725 0a.5.5 0 0 0 .5-.5v-149.34a.5.5 0 0 0-1 0v149.34a.5.5 0 0 0 .5.5zm9.732-218.541a.5.5 0 0 0-.5.5v2.347a.5.5 0 0 0 1 0v-2.347a.5.5 0 0 0-.5-.5zm17.49 0a.5.5 0 0 0-.5.5v2.347a.5.5 0 0 0 1 0v-2.347a.5.5 0 0 0-.5-.5zm-13.992 0a.5.5 0 0 0-.5.5v2.347a.5.5 0 0 0 1 0v-2.347a.5.5 0 0 0-.5-.5zm10.494 0a.5.5 0 0 0-.5.5v2.347a.5.5 0 0 0 1 0v-2.347a.5.5 0 0 0-.5-.5zm-6.996 0a.5.5 0 0 0-.5.5v2.347a.5.5 0 0 0 1 0v-2.347a.5.5 0 0 0-.5-.5zm3.498 0a.5.5 0 0 0-.5.5v2.347a.5.5 0 0 0 1 0v-2.347a.5.5 0 0 0-.5-.5zM42.005 294.407h-5.088a.5.5 0 0 0-.5.5v8.234a.5.5 0 0 0 .5.5h5.088a.5.5 0 0 0 .5-.5v-8.234a.5.5 0 0 0-.5-.5zm40.317 0h-5.087a.5.5 0 0 0-.5.5v8.234a.5.5 0 0 0 .5.5h5.087a.5.5 0 0 0 .5-.5v-8.234a.5.5 0 0 0-.5-.5zm-10.079 0h-5.087a.5.5 0 0 0-.5.5v8.234a.5.5 0 0 0 .5.5h5.087a.5.5 0 0 0 .5-.5v-8.234a.5.5 0 0 0-.5-.5zm-10.08 0h-5.086a.5.5 0 0 0-.5.5v8.234a.5.5 0 0 0 .5.5h5.087a.5.5 0 0 0 .5-.5v-8.234a.5.5 0 0 0-.5-.5zm-10.079 0h-5.087a.5.5 0 0 0-.5.5v8.234a.5.5 0 0 0 .5.5h5.087a.5.5 0 0 0 .5-.5v-8.234a.5.5 0 0 0-.5-.5zm-10.08 13.62h-5.087a.5.5 0 0 0-.5.5v8.234a.5.5 0 0 0 .5.5h5.088a.5.5 0 0 0 .5-.5v-8.233a.5.5 0 0 0-.5-.5zm40.318 0h-5.087a.5.5 0 0 0-.5.5v8.234a.5.5 0 0 0 .5.5h5.087a.5.5 0 0 0 .5-.5v-8.233a.5.5 0 0 0-.5-.5zm-10.079 0h-5.087a.5.5 0 0 0-.5.5v8.234a.5.5 0 0 0 .5.5h5.087a.5.5 0 0 0 .5-.5v-8.233a.5.5 0 0 0-.5-.5zm-10.08 0h-5.086a.5.5 0 0 0-.5.5v8.234a.5.5 0 0 0 .5.5h5.087a.5.5 0 0 0 .5-.5v-8.233a.5.5 0 0 0-.5-.5zm-10.079 0h-5.087a.5.5 0 0 0-.5.5v8.234a.5.5 0 0 0 .5.5h5.087a.5.5 0 0 0 .5-.5v-8.233a.5.5 0 0 0-.5-.5zm-10.08 13.62h-5.087a.5.5 0 0 0-.5.5v8.234a.5.5 0 0 0 .5.5h5.088a.5.5 0 0 0 .5-.5v-8.234a.5.5 0 0 0-.5-.5zm40.318 0h-5.087a.5.5 0 0 0-.5.5v8.234a.5.5 0 0 0 .5.5h5.087a.5.5 0 0 0 .5-.5v-8.234a.5.5 0 0 0-.5-.5zm-10.079 0h-5.087a.5.5 0 0 0-.5.5v8.234a.5.5 0 0 0 .5.5h5.087a.5.5 0 0 0 .5-.5v-8.234a.5.5 0 0 0-.5-.5zm-10.08 0h-5.086a.5.5 0 0 0-.5.5v8.234a.5.5 0 0 0 .5.5h5.087a.5.5 0 0 0 .5-.5v-8.234a.5.5 0 0 0-.5-.5zm-10.079 0h-5.087a.5.5 0 0 0-.5.5v8.234a.5.5 0 0 0 .5.5h5.087a.5.5 0 0 0 .5-.5v-8.234a.5.5 0 0 0-.5-.5zm-10.08 13.62h-5.087a.5.5 0 0 0-.5.5V344a.5.5 0 0 0 .5.5h5.088a.5.5 0 0 0 .5-.5v-8.233a.5.5 0 0 0-.5-.5zm40.318 0h-5.087a.5.5 0 0 0-.5.5V344a.5.5 0 0 0 .5.5h5.087a.5.5 0 0 0 .5-.5v-8.233a.5.5 0 0 0-.5-.5zm-10.079 0h-5.087a.5.5 0 0 0-.5.5V344a.5.5 0 0 0 .5.5h5.087a.5.5 0 0 0 .5-.5v-8.233a.5.5 0 0 0-.5-.5zm-10.08 0h-5.086a.5.5 0 0 0-.5.5V344a.5.5 0 0 0 .5.5h5.087a.5.5 0 0 0 .5-.5v-8.233a.5.5 0 0 0-.5-.5zm-10.079 0h-5.087a.5.5 0 0 0-.5.5V344a.5.5 0 0 0 .5.5h5.087a.5.5 0 0 0 .5-.5v-8.233a.5.5 0 0 0-.5-.5zm-10.08 13.62h-5.087a.5.5 0 0 0-.5.5v8.233a.5.5 0 0 0 .5.5h5.088a.5.5 0 0 0 .5-.5v-8.234a.5.5 0 0 0-.5-.5zm40.318 0h-5.087a.5.5 0 0 0-.5.5v8.233a.5.5 0 0 0 .5.5h5.087a.5.5 0 0 0 .5-.5v-8.234a.5.5 0 0 0-.5-.5zm-10.079 0h-5.087a.5.5 0 0 0-.5.5v8.233a.5.5 0 0 0 .5.5h5.087a.5.5 0 0 0 .5-.5v-8.234a.5.5 0 0 0-.5-.5zm-10.08 0h-5.086a.5.5 0 0 0-.5.5v8.233a.5.5 0 0 0 .5.5h5.087a.5.5 0 0 0 .5-.5v-8.234a.5.5 0 0 0-.5-.5zm-10.079 0h-5.087a.5.5 0 0 0-.5.5v8.233a.5.5 0 0 0 .5.5h5.087a.5.5 0 0 0 .5-.5v-8.234a.5.5 0 0 0-.5-.5zm-10.08 13.62h-5.087a.5.5 0 0 0-.5.5v8.233a.5.5 0 0 0 .5.5h5.088a.5.5 0 0 0 .5-.5v-8.234a.5.5 0 0 0-.5-.5zm40.318 0h-5.087a.5.5 0 0 0-.5.5v8.233a.5.5 0 0 0 .5.5h5.087a.5.5 0 0 0 .5-.5v-8.234a.5.5 0 0 0-.5-.5zm-10.079 0h-5.087a.5.5 0 0 0-.5.5v8.233a.5.5 0 0 0 .5.5h5.087a.5.5 0 0 0 .5-.5v-8.234a.5.5 0 0 0-.5-.5zm-10.08 0h-5.086a.5.5 0 0 0-.5.5v8.233a.5.5 0 0 0 .5.5h5.087a.5.5 0 0 0 .5-.5v-8.234a.5.5 0 0 0-.5-.5zm-10.079 0h-5.087a.5.5 0 0 0-.5.5v8.233a.5.5 0 0 0 .5.5h5.087a.5.5 0 0 0 .5-.5v-8.234a.5.5 0 0 0-.5-.5zm-10.08 13.62h-5.087a.5.5 0 0 0-.5.5v8.233a.5.5 0 0 0 .5.5h5.088a.5.5 0 0 0 .5-.5v-8.234a.5.5 0 0 0-.5-.5zm40.318 0h-5.087a.5.5 0 0 0-.5.5v8.233a.5.5 0 0 0 .5.5h5.087a.5.5 0 0 0 .5-.5v-8.234a.5.5 0 0 0-.5-.5zm-10.079 0h-5.087a.5.5 0 0 0-.5.5v8.233a.5.5 0 0 0 .5.5h5.087a.5.5 0 0 0 .5-.5v-8.234a.5.5 0 0 0-.5-.5zm-10.08 0h-5.086a.5.5 0 0 0-.5.5v8.233a.5.5 0 0 0 .5.5h5.087a.5.5 0 0 0 .5-.5v-8.234a.5.5 0 0 0-.5-.5zm-10.079 0h-5.087a.5.5 0 0 0-.5.5v8.233a.5.5 0 0 0 .5.5h5.087a.5.5 0 0 0 .5-.5v-8.234a.5.5 0 0 0-.5-.5zm237.16-79.726h-5.731a.5.5 0 0 0-.5.5v87.484a.5.5 0 0 0 .5.5h5.73a.5.5 0 0 0 .5-.5V296.9a.5.5 0 0 0-.5-.5zm-23.22 0h-5.73a.5.5 0 0 0-.5.5v87.484a.5.5 0 0 0 .5.5h5.73a.5.5 0 0 0 .5-.5V296.9a.5.5 0 0 0-.5-.5zm11.61 0h-5.73a.5.5 0 0 0-.5.5v87.484a.5.5 0 0 0 .5.5h5.73a.5.5 0 0 0 .5-.5V296.9a.5.5 0 0 0-.5-.5zm23.218 0h-5.73a.5.5 0 0 0-.5.5v87.484a.5.5 0 0 0 .5.5h5.73a.5.5 0 0 0 .5-.5V296.9a.5.5 0 0 0-.5-.5zm-46.436 0h-5.728a.5.5 0 0 0-.5.5v87.484a.5.5 0 0 0 .5.5h5.728a.5.5 0 0 0 .5-.5V296.9a.5.5 0 0 0-.5-.5zm69.654 0h-5.73a.5.5 0 0 0-.5.5v87.484a.5.5 0 0 0 .5.5h5.73a.5.5 0 0 0 .5-.5V296.9a.5.5 0 0 0-.5-.5zm-11.609 0h-5.73a.5.5 0 0 0-.5.5v87.484a.5.5 0 0 0 .5.5h5.73a.5.5 0 0 0 .5-.5V296.9a.5.5 0 0 0-.5-.5zm65.978 85.746a2.874 2.874 0 0 0 2.872-2.87v-14.252a2.874 2.874 0 0 0-5.747 0v14.251a2.876 2.876 0 0 0 2.875 2.871zm-9.869 0a2.874 2.874 0 0 0 2.871-2.87v-14.252a2.875 2.875 0 0 0-5.747 0v14.251a2.876 2.876 0 0 0 2.876 2.871zm-9.868 0a2.874 2.874 0 0 0 2.87-2.87v-14.252a2.874 2.874 0 0 0-5.747 0v14.251a2.876 2.876 0 0 0 2.877 2.871zm-9.87 0a2.874 2.874 0 0 0 2.872-2.87v-14.252a2.875 2.875 0 0 0-5.747 0v14.251a2.876 2.876 0 0 0 2.876 2.871zm-9.868 0a2.874 2.874 0 0 0 2.871-2.87v-14.252a2.874 2.874 0 0 0-5.747 0v14.251a2.876 2.876 0 0 0 2.876 2.871zM279.559 236.57h5.167v5.167a.5.5 0 0 0 1 0v-5.167h5.167a.5.5 0 1 0 0-1h-5.167v-5.167a.5.5 0 0 0-1 0v5.167h-5.167a.5.5 0 0 0 0 1zm260.906-10.939h5.167v5.167a.5.5 0 0 0 1 0v-5.167h5.167a.5.5 0 1 0 0-1h-5.167v-5.166a.5.5 0 0 0-1 0v5.166h-5.167a.5.5 0 0 0 0 1zm-112.34-39.754h5.167v5.166a.5.5 0 1 0 1 0v-5.166h5.167a.5.5 0 1 0 0-1h-5.167v-5.167a.5.5 0 1 0-1 0v5.167h-5.167a.5.5 0 0 0 0 1zM297.83 135.909h5.166v5.167a.5.5 0 0 0 1 0v-5.167h5.167a.5.5 0 1 0 0-1h-5.167v-5.166a.5.5 0 1 0-1 0v5.166h-5.166a.5.5 0 0 0 0 1zM46.417 226.478h5.167v5.167a.5.5 0 0 0 1 0v-5.167h5.167a.5.5 0 1 0 0-1h-5.167v-5.167a.5.5 0 0 0-1 0v5.167h-5.167a.5.5 0 0 0 0 1zm554.591-26.688a3.86 3.86 0 0 0 3.86-3.85c0-2.129-1.731-3.86-3.86-3.86s-3.86 1.731-3.86 3.86a3.86 3.86 0 0 0 3.86 3.85zm0-6.71a2.863 2.863 0 0 1 2.86 2.86c0 1.571-1.283 2.85-2.86 2.85s-2.86-1.279-2.86-2.85a2.863 2.863 0 0 1 2.86-2.86zM244.12 177.79a3.86 3.86 0 0 0 3.86-3.85c0-2.129-1.731-3.86-3.86-3.86s-3.86 1.731-3.86 3.86a3.86 3.86 0 0 0 3.86 3.85zm0-6.71a2.863 2.863 0 0 1 2.86 2.86c0 1.571-1.283 2.85-2.86 2.85s-2.86-1.279-2.86-2.85a2.863 2.863 0 0 1 2.86-2.86zm221.629-15.862a3.86 3.86 0 0 0 3.86-3.85c0-2.129-1.732-3.86-3.86-3.86s-3.86 1.731-3.86 3.86a3.86 3.86 0 0 0 3.86 3.85zm0-6.71a2.863 2.863 0 0 1 2.86 2.86c0 1.57-1.283 2.85-2.86 2.85s-2.86-1.28-2.86-2.85a2.863 2.863 0 0 1 2.86-2.86zm-111.897 17.547a3.86 3.86 0 0 0 3.86-3.85c0-2.128-1.732-3.86-3.86-3.86s-3.86 1.732-3.86 3.86a3.86 3.86 0 0 0 3.86 3.85zm0-6.71a2.863 2.863 0 0 1 2.86 2.86c0 1.572-1.283 2.85-2.86 2.85s-2.86-1.278-2.86-2.85a2.863 2.863 0 0 1 2.86-2.86zm-190.349 20.799h5.167v5.166a.5.5 0 1 0 1 0v-5.166h5.167a.5.5 0 0 0 0-1h-5.167v-5.167a.5.5 0 0 0-1 0v5.167h-5.167a.5.5 0 1 0 0 1zM79.78 164.882a3.86 3.86 0 0 0 3.86-3.85c0-2.129-1.732-3.86-3.86-3.86s-3.86 1.731-3.86 3.86a3.86 3.86 0 0 0 3.86 3.85zm0-6.71a2.863 2.863 0 0 1 2.86 2.86c0 1.571-1.283 2.85-2.86 2.85s-2.86-1.279-2.86-2.85a2.863 2.863 0 0 1 2.86-2.86zm154.588 215.492h4.026a.5.5 0 0 0 .5-.5v-9.737a.5.5 0 0 0-.5-.5h-4.026a.5.5 0 0 0-.5.5v9.737a.5.5 0 0 0 .5.5zm0-14.605h4.026a.5.5 0 0 0 .5-.5v-9.737a.5.5 0 0 0-.5-.5h-4.026a.5.5 0 0 0-.5.5v9.737a.5.5 0 0 0 .5.5zm0-14.606h4.026a.5.5 0 0 0 .5-.5v-9.737a.5.5 0 0 0-.5-.5h-4.026a.5.5 0 0 0-.5.5v9.737a.5.5 0 0 0 .5.5zm0-14.606h4.026a.5.5 0 0 0 .5-.5v-9.737a.5.5 0 0 0-.5-.5h-4.026a.5.5 0 0 0-.5.5v9.737a.5.5 0 0 0 .5.5zm0-14.606h4.026a.5.5 0 0 0 .5-.5v-9.737a.5.5 0 0 0-.5-.5h-4.026a.5.5 0 0 0-.5.5v9.737a.5.5 0 0 0 .5.5zm0-14.606h4.026a.5.5 0 0 0 .5-.5v-9.737a.5.5 0 0 0-.5-.5h-4.026a.5.5 0 0 0-.5.5v9.737a.5.5 0 0 0 .5.5zm0-14.605h4.026a.5.5 0 0 0 .5-.5v-9.738a.5.5 0 0 0-.5-.5h-4.026a.5.5 0 0 0-.5.5v9.738a.5.5 0 0 0 .5.5zm-9.144 87.634h4.026a.5.5 0 0 0 .5-.5v-9.737a.5.5 0 0 0-.5-.5h-4.026a.5.5 0 0 0-.5.5v9.737a.5.5 0 0 0 .5.5zm0-14.605h4.026a.5.5 0 0 0 .5-.5v-9.737a.5.5 0 0 0-.5-.5h-4.026a.5.5 0 0 0-.5.5v9.737a.5.5 0 0 0 .5.5zm0-14.606h4.026a.5.5 0 0 0 .5-.5v-9.737a.5.5 0 0 0-.5-.5h-4.026a.5.5 0 0 0-.5.5v9.737a.5.5 0 0 0 .5.5zm0-14.606h4.026a.5.5 0 0 0 .5-.5v-9.737a.5.5 0 0 0-.5-.5h-4.026a.5.5 0 0 0-.5.5v9.737a.5.5 0 0 0 .5.5zm0-14.606h4.026a.5.5 0 0 0 .5-.5v-9.737a.5.5 0 0 0-.5-.5h-4.026a.5.5 0 0 0-.5.5v9.737a.5.5 0 0 0 .5.5zm0-14.606h4.026a.5.5 0 0 0 .5-.5v-9.737a.5.5 0 0 0-.5-.5h-4.026a.5.5 0 0 0-.5.5v9.737a.5.5 0 0 0 .5.5zm0-14.605h4.026a.5.5 0 0 0 .5-.5v-9.738a.5.5 0 0 0-.5-.5h-4.026a.5.5 0 0 0-.5.5v9.738a.5.5 0 0 0 .5.5zm-9.143 58.423h4.025a.5.5 0 0 0 .5-.5v-9.737a.5.5 0 0 0-.5-.5h-4.025a.5.5 0 0 0-.5.5v9.737a.5.5 0 0 0 .5.5zm0-14.606h4.025a.5.5 0 0 0 .5-.5v-9.737a.5.5 0 0 0-.5-.5h-4.025a.5.5 0 0 0-.5.5v9.737a.5.5 0 0 0 .5.5zm0-14.606h4.025a.5.5 0 0 0 .5-.5v-9.737a.5.5 0 0 0-.5-.5h-4.025a.5.5 0 0 0-.5.5v9.737a.5.5 0 0 0 .5.5zm0-14.606h4.025a.5.5 0 0 0 .5-.5v-9.737a.5.5 0 0 0-.5-.5h-4.025a.5.5 0 0 0-.5.5v9.737a.5.5 0 0 0 .5.5zm0-14.605h4.025a.5.5 0 0 0 .5-.5v-9.738a.5.5 0 0 0-.5-.5h-4.025a.5.5 0 0 0-.5.5v9.738a.5.5 0 0 0 .5.5zm-9.143 58.423h4.025a.5.5 0 0 0 .5-.5v-9.737a.5.5 0 0 0-.5-.5h-4.025a.5.5 0 0 0-.5.5v9.737a.5.5 0 0 0 .5.5zm0-14.606h4.025a.5.5 0 0 0 .5-.5v-9.737a.5.5 0 0 0-.5-.5h-4.025a.5.5 0 0 0-.5.5v9.737a.5.5 0 0 0 .5.5zm0-14.606h4.025a.5.5 0 0 0 .5-.5v-9.737a.5.5 0 0 0-.5-.5h-4.025a.5.5 0 0 0-.5.5v9.737a.5.5 0 0 0 .5.5zm0-14.606h4.025a.5.5 0 0 0 .5-.5v-9.737a.5.5 0 0 0-.5-.5h-4.025a.5.5 0 0 0-.5.5v9.737a.5.5 0 0 0 .5.5zm0-14.605h4.025a.5.5 0 0 0 .5-.5v-9.738a.5.5 0 0 0-.5-.5h-4.025a.5.5 0 0 0-.5.5v9.738a.5.5 0 0 0 .5.5zm-9.144 58.423h4.026a.5.5 0 0 0 .5-.5v-9.737a.5.5 0 0 0-.5-.5h-4.026a.5.5 0 0 0-.5.5v9.737a.5.5 0 0 0 .5.5zm0-14.606h4.026a.5.5 0 0 0 .5-.5v-9.737a.5.5 0 0 0-.5-.5h-4.026a.5.5 0 0 0-.5.5v9.737a.5.5 0 0 0 .5.5zm0-14.606h4.026a.5.5 0 0 0 .5-.5v-9.737a.5.5 0 0 0-.5-.5h-4.026a.5.5 0 0 0-.5.5v9.737a.5.5 0 0 0 .5.5zm0-14.606h4.026a.5.5 0 0 0 .5-.5v-9.737a.5.5 0 0 0-.5-.5h-4.026a.5.5 0 0 0-.5.5v9.737a.5.5 0 0 0 .5.5zm0-14.605h4.026a.5.5 0 0 0 .5-.5v-9.738a.5.5 0 0 0-.5-.5h-4.026a.5.5 0 0 0-.5.5v9.738a.5.5 0 0 0 .5.5zm-9.144 58.423h4.026a.5.5 0 0 0 .5-.5v-9.737a.5.5 0 0 0-.5-.5h-4.026a.5.5 0 0 0-.5.5v9.737a.5.5 0 0 0 .5.5zm0-14.606h4.026a.5.5 0 0 0 .5-.5v-9.737a.5.5 0 0 0-.5-.5h-4.026a.5.5 0 0 0-.5.5v9.737a.5.5 0 0 0 .5.5zm0-14.606h4.026a.5.5 0 0 0 .5-.5v-9.737a.5.5 0 0 0-.5-.5h-4.026a.5.5 0 0 0-.5.5v9.737a.5.5 0 0 0 .5.5zm0-14.606h4.026a.5.5 0 0 0 .5-.5v-9.737a.5.5 0 0 0-.5-.5h-4.026a.5.5 0 0 0-.5.5v9.737a.5.5 0 0 0 .5.5zm0-14.605h4.026a.5.5 0 0 0 .5-.5v-9.738a.5.5 0 0 0-.5-.5h-4.026a.5.5 0 0 0-.5.5v9.738a.5.5 0 0 0 .5.5zm-9.143 58.423h4.026a.5.5 0 0 0 .5-.5v-9.737a.5.5 0 0 0-.5-.5h-4.026a.5.5 0 0 0-.5.5v9.737a.5.5 0 0 0 .5.5zm0-14.606h4.026a.5.5 0 0 0 .5-.5v-9.737a.5.5 0 0 0-.5-.5h-4.026a.5.5 0 0 0-.5.5v9.737a.5.5 0 0 0 .5.5zm0-14.606h4.026a.5.5 0 0 0 .5-.5v-9.737a.5.5 0 0 0-.5-.5h-4.026a.5.5 0 0 0-.5.5v9.737a.5.5 0 0 0 .5.5zm0-14.606h4.026a.5.5 0 0 0 .5-.5v-9.737a.5.5 0 0 0-.5-.5h-4.026a.5.5 0 0 0-.5.5v9.737a.5.5 0 0 0 .5.5zm0-14.605h4.026a.5.5 0 0 0 .5-.5v-9.738a.5.5 0 0 0-.5-.5h-4.026a.5.5 0 0 0-.5.5v9.738a.5.5 0 0 0 .5.5zm-5.118 76.897h-4.025a.5.5 0 0 0-.5.5v9.737a.5.5 0 0 0 .5.5h4.025a.5.5 0 0 0 .5-.5v-9.737a.5.5 0 0 0-.5-.5zm0-14.605h-4.025a.5.5 0 0 0-.5.5v9.737a.5.5 0 0 0 .5.5h4.025a.5.5 0 0 0 .5-.5v-9.737a.5.5 0 0 0-.5-.5zm0-14.606h-4.025a.5.5 0 0 0-.5.5v9.737a.5.5 0 0 0 .5.5h4.025a.5.5 0 0 0 .5-.5v-9.737a.5.5 0 0 0-.5-.5zm0-14.606h-4.025a.5.5 0 0 0-.5.5v9.737a.5.5 0 0 0 .5.5h4.025a.5.5 0 0 0 .5-.5v-9.737a.5.5 0 0 0-.5-.5zm0-14.606h-4.025a.5.5 0 0 0-.5.5v9.737a.5.5 0 0 0 .5.5h4.025a.5.5 0 0 0 .5-.5v-9.737a.5.5 0 0 0-.5-.5zm0-14.606h-4.025a.5.5 0 0 0-.5.5v9.737a.5.5 0 0 0 .5.5h4.025a.5.5 0 0 0 .5-.5v-9.737a.5.5 0 0 0-.5-.5zm0-14.606h-4.025a.5.5 0 0 0-.5.5v9.738a.5.5 0 0 0 .5.5h4.025a.5.5 0 0 0 .5-.5v-9.738a.5.5 0 0 0-.5-.5zm-9.143 87.635h-4.026a.5.5 0 0 0-.5.5v9.737a.5.5 0 0 0 .5.5h4.026a.5.5 0 0 0 .5-.5v-9.737a.5.5 0 0 0-.5-.5zm0-14.605h-4.026a.5.5 0 0 0-.5.5v9.737a.5.5 0 0 0 .5.5h4.026a.5.5 0 0 0 .5-.5v-9.737a.5.5 0 0 0-.5-.5zm0-14.606h-4.026a.5.5 0 0 0-.5.5v9.737a.5.5 0 0 0 .5.5h4.026a.5.5 0 0 0 .5-.5v-9.737a.5.5 0 0 0-.5-.5zm0-14.606h-4.026a.5.5 0 0 0-.5.5v9.737a.5.5 0 0 0 .5.5h4.026a.5.5 0 0 0 .5-.5v-9.737a.5.5 0 0 0-.5-.5zm0-14.606h-4.026a.5.5 0 0 0-.5.5v9.737a.5.5 0 0 0 .5.5h4.026a.5.5 0 0 0 .5-.5v-9.737a.5.5 0 0 0-.5-.5zm0-14.606h-4.026a.5.5 0 0 0-.5.5v9.737a.5.5 0 0 0 .5.5h4.026a.5.5 0 0 0 .5-.5v-9.737a.5.5 0 0 0-.5-.5zm0-14.606h-4.026a.5.5 0 0 0-.5.5v9.738a.5.5 0 0 0 .5.5h4.026a.5.5 0 0 0 .5-.5v-9.738a.5.5 0 0 0-.5-.5z"/><path d="M625 391.434h-6.404v-7.048a.5.5 0 0 0-.5-.5h-2.85V264.979h1.75a.5.5 0 0 0 .5-.5v-5.672a.5.5 0 0 0-.147-.353l-4.727-4.727a.5.5 0 0 0-.354-.147h-43.981a.5.5 0 0 0-.354.147l-4.727 4.727a.5.5 0 0 0-.147.353v5.672a.5.5 0 0 0 .5.5h1.756v23.852h-40V183.106a.5.5 0 0 0-.5-.5h-6.29v-4.436a.5.5 0 0 0-.5-.5h-9.296l-12.936-15.969V137.69a.5.5 0 1 0-1 0v24.013l-12.935 15.968h-9.296a.5.5 0 0 0-.5.5v4.436h-6.287a.5.5 0 0 0-.5.5v33.714l-18.892 12.696h-8.987v-5.62a.5.5 0 0 0-.5-.5h-8.49v-5.63a.5.5 0 0 0-.5-.5h-8.17v-5.61a.5.5 0 0 0-.5-.5h-4.046v-15.221a.5.5 0 0 0-.5-.5h-.007a.5.5 0 0 0-.5.5v15.221h-4.048a.5.5 0 0 0-.5.5v5.61h-8.15a.5.5 0 0 0-.502.504v5.626h-8.477a.502.502 0 0 0-.196.04.498.498 0 0 0-.314.463v5.617h-9.15a.5.5 0 0 0-.5.5v8.83a17.269 17.269 0 0 0-12.31-8.692.514.514 0 0 0-.125-.019 12.017 12.017 0 0 0-.132-.02c.046-.38.076-.767.076-1.159v-5.936l5.124-8.874a3.251 3.251 0 0 0 0-3.24l-.55-.952 6.562-2.43a1.39 1.39 0 0 0 .768-.683 1.405 1.405 0 0 0-1.543-2.007l-7.787 1.658-3.07-5.316 3.9-6.258c.189-.298.255-.657.187-1.012a1.409 1.409 0 0 0-.552-.866 1.41 1.41 0 0 0-1.897.228l-4.015 4.75a3.217 3.217 0 0 0-1.546-.402h-4.768l-.57-7.896a1.405 1.405 0 0 0-2.8-.002l-.57 7.898h-4.762c-.55 0-1.082.145-1.553.402l-4.015-4.75a1.411 1.411 0 0 0-1.9-.226 1.406 1.406 0 0 0-.362 1.875l3.9 6.257-3.068 5.318-7.787-1.658a1.401 1.401 0 0 0-1.638.979 1.396 1.396 0 0 0 .857 1.71l6.57 2.432-.548.952a3.253 3.253 0 0 0 0 3.239l5.123 8.884v5.926c0 .327.018.65.05.97h-5.61a2.84 2.84 0 0 0-1.442.413l-3.007-4.61a7.653 7.653 0 0 0-.613-8.706 7.664 7.664 0 0 0-8.307-2.53v-29.077c0-2.524-1.71-4.8-4.32-5.354v-5.01h2.057a4.379 4.379 0 0 0 4.374-4.375v-1.31a.5.5 0 0 0-.5-.5h-4.858c.257-.168.506-.344.744-.54 4.319-3.563 3.54-9.762.54-14.044a.5.5 0 0 0-.502-.198.51.51 0 0 0-.396.376c-.123.49-.232.92-.45 1.268-.315-4.085-2.317-7.182-6.094-9.446a.498.498 0 0 0-.755.394l-.03.418c-.019.236-.033.424-.04.613-.067 1.907-.668 3.678-1.786 5.264-.464.658-.952 1.299-1.44 1.94-.267.35-.534.7-.796 1.052-1.258 1.689-1.93 3.455-2.055 5.4-.192 2.979 1.377 5.981 3.736 7.504h-4.86a.5.5 0 0 0-.5.5v1.31a4.379 4.379 0 0 0 4.375 4.374h2.056v2.929h-.69a3.832 3.832 0 0 0-3.827 3.828v7.134a3.832 3.832 0 0 0 3.828 3.828h1.169v29.868l-2.271 1.816a7.68 7.68 0 0 0-1.2 10.804c1.473 1.842 3.739 2.991 6.386 2.856l5.056 8.598-.361.398a7.594 7.594 0 0 0 .246 10.469l1.28 1.28a7.614 7.614 0 0 0 6.194 2.176v19.32H244.62v-9.923h3.493a.5.5 0 0 0 .5-.5v-7.923a.5.5 0 0 0-.5-.5h-6.339v-46.255h2.346a.5.5 0 0 0 .5-.5v-9.536a.5.5 0 0 0-.5-.5h-75.17a.5.5 0 0 0-.5.5v9.536a.5.5 0 0 0 .5.5h2.347v46.255h-16.67l-.003-38.844a.499.499 0 0 0-.499-.49h-2.62v-26.64a.5.5 0 0 0-.5-.5h-6.29v-21.1a.5.5 0 0 0-.5-.5h-5.067v-8.107a.5.5 0 0 0-.5-.5h-5.703v-8.105a.5.5 0 0 0-.5-.5h-4.68V146a.5.5 0 0 0-.5-.5h-2.703V132.9a.5.5 0 0 0-.5-.5h-.96v-2.257c0-1.485-1-2.748-2.4-3.014v-19.065a.5.5 0 1 0-1 0v19.065c-1.368.251-2.413 1.503-2.413 3.014v2.257h-.947a.5.5 0 0 0-.5.5v12.6h-2.704a.5.5 0 0 0-.5.5v10.224h-4.68a.5.5 0 0 0-.5.5v8.105h-5.702a.5.5 0 0 0-.5.5v8.107h-5.06a.5.5 0 0 0-.5.5v21.1h-6.3a.5.5 0 0 0-.5.5v26.64h-2.62a.5.5 0 0 0-.5.5v58.08H28.094a.5.5 0 0 0-.5.5v4.33a.5.5 0 0 0 .5.5h1.498v3.83a.5.5 0 0 0 .5.5h1.378v101.018H25a.5.5 0 1 0 0 1h174.125a.5.5 0 0 1-.5-.5v-35.091h1v35.09a.5.5 0 0 1-.5.5h44.978c.004 0 .008.003.013.003h215.73l.012-.002c41.317 0 105.225.002 165.142 0a.5.5 0 0 0 0-1zM144.687 199.84a.5.5 0 0 1 1 0v20.471a.5.5 0 1 1-1 0v-20.47zm-4.823 0v20.471a.5.5 0 1 1-1 0v-20.47a.5.5 0 0 1 1 0zm-1.488-20.196a.5.5 0 1 1 1 0v15.896a.5.5 0 0 1-1 0v-15.896zm-4.327-11.27a.5.5 0 0 1 1 0v2.517a.5.5 0 0 1-1 0v-2.518zm-1.008 11.27a.5.5 0 1 1 1 0v15.896a.5.5 0 0 1-1 0v-15.896zm-8.808-30.39v4.216a.5.5 0 1 1-1 0v-4.215a.5.5 0 1 1 1 0zm-7.391-15.854h6.72v12.1h-2.86v-10.09a.5.5 0 0 0-1 0v10.09h-2.86v-12.1zm3.86 15.855v4.215a.5.5 0 1 1-1 0v-4.215a.5.5 0 1 1 1 0zm-4.532 0a.5.5 0 1 1 1 0v4.215a.5.5 0 1 1-1 0v-4.215zm-7.712 7.969H131.945v7.605h-23.487v-7.605zm21.575 207.896h-19.662a.5.5 0 1 1 0-1h19.662a.5.5 0 0 1 0 1zm.5 6.083a.5.5 0 0 1-.5.5h-19.662a.5.5 0 1 1 0-1h19.662a.5.5 0 0 1 .5.5zm-21.079-200.312v-2.518a.5.5 0 0 1 1 0v2.518a.5.5 0 0 1-1 0zm20.58 187.647H110.37a.5.5 0 0 1 0-1h19.662a.5.5 0 0 1 0 1zm0-6.583H110.37a.5.5 0 1 1 0-1h19.662a.5.5 0 0 1 0 1zm0-6.583H110.37a.5.5 0 0 1 0-1h19.662a.5.5 0 1 1 0 1zm0-6.583H110.37a.5.5 0 1 1 0-1h19.662a.5.5 0 0 1 0 1zm0-6.582H110.37a.5.5 0 0 1 0-1h19.662a.5.5 0 1 1 0 1zm0-6.583H110.37a.5.5 0 1 1 0-1h19.662a.5.5 0 0 1 0 1zm0-6.583H110.37a.5.5 0 0 1 0-1h19.662a.5.5 0 1 1 0 1zm0-6.583H110.37a.5.5 0 1 1 0-1h19.662a.5.5 0 0 1 0 1zm0-6.582H110.37a.5.5 0 0 1 0-1h19.662a.5.5 0 1 1 0 1zm-18.335-7.083v-119.15a.5.5 0 1 1 1 0v119.15h-1zm1.854-127.902v-2.518a.5.5 0 0 1 1 0v2.518a.5.5 0 0 1-1 0zm4.481 8.753v119.149h-1v-119.15a.5.5 0 1 1 1 0zm-.382-8.753v-2.518a.5.5 0 0 1 1 0v2.518a.5.5 0 0 1-1 0zm5.1 0a.5.5 0 0 1-1 0v-2.518a.5.5 0 0 1 1 0v2.518zm.118 8.253a.5.5 0 0 1 .5.5v119.149h-1v-119.15a.5.5 0 0 1 .5-.5zm2.98-8.253v-2.518a.5.5 0 0 1 1 0v2.518a.5.5 0 0 1-1 0zm2.855 127.902h-1v-119.15a.5.5 0 1 1 1 0v119.15zm-22.342-119.15a.5.5 0 1 1 1 0v15.897a.5.5 0 0 1-1 0v-15.896zm-1.008-11.27a.5.5 0 0 1 1 0v2.518a.5.5 0 0 1-1 0v-2.518zm-4.327 11.27a.5.5 0 1 1 1 0v15.897a.5.5 0 0 1-1 0v-15.896zm-.488 20.197a.5.5 0 0 1 1 0v20.471a.5.5 0 1 1-1 0v-20.47zm-5.823 0a.5.5 0 0 1 1 0v20.471a.5.5 0 1 1-1 0v-20.47zm-64.124 89.575v-3.33h58.099v3.33H30.593zm56.221 102.019H32.471V290.415h54.343v101.019zm1 0V290.415h1.378a.5.5 0 0 0 .5-.5v-3.83h1.498a.5.5 0 0 0 .5-.5v-4.33a.5.5 0 0 0-.5-.5h-4.415v-57.579h22.17v75.12h-2.08a.5.5 0 0 0-.5.5v78.49h-.474a.5.5 0 0 0-.367.161l-12.922 13.987h-4.788zm37.901-3.715h-25.54a.5.5 0 1 1 0-1h25.54a.5.5 0 0 1 0 1zm4.357-4.714h-25.54a.5.5 0 0 1 0-1h25.54a.5.5 0 0 1 0 1zm.878-212.114a.5.5 0 0 1-1 0v-2.518a.5.5 0 0 1 1 0v2.518zm22.679 206.395h-6.725V228.054a.5.5 0 0 0-1 0v149.232h-6.725V228.054a.5.5 0 0 0-1 0v149.232h-4.143v-78.49a.5.5 0 0 0-.5-.5h-2.08v-75.12h22.171c0 25.014.002 56.963.002 154.11zm84.98-169.355a.5.5 0 1 1 1 0v4.112a.5.5 0 0 1-1 0v-4.112zm-5.011 0a.5.5 0 1 1 1 0v4.112a.5.5 0 0 1-1 0v-4.112zm-5.012 0a.5.5 0 1 1 1 0v4.112a.5.5 0 0 1-1 0v-4.112zm-5.011 0a.5.5 0 1 1 1 0v4.112a.5.5 0 0 1-1 0v-4.112zm-5.012 0a.5.5 0 1 1 1 0v4.112a.5.5 0 0 1-1 0v-4.112zm-5.01 0a.5.5 0 1 1 1 0v4.112a.5.5 0 0 1-1 0v-4.112zm-5.012 0a.5.5 0 1 1 1 0v4.112a.5.5 0 0 1-1 0v-4.112zm-5.011 0a.5.5 0 1 1 1 0v4.112a.5.5 0 0 1-1 0v-4.112zm-5.011 0a.5.5 0 1 1 1 0v4.112a.5.5 0 0 1-1 0v-4.112zm-5.012 0a.5.5 0 1 1 1 0v4.112a.5.5 0 0 1-1 0v-4.112zm-5.011 0a.5.5 0 1 1 1 0v4.112a.5.5 0 0 1-1 0v-4.112zm-5.012 0a.5.5 0 1 1 1 0v4.112a.5.5 0 0 1-1 0v-4.112zm-5.01 0a.5.5 0 1 1 1 0v4.112a.5.5 0 0 1-1 0v-4.112zm-5.012 0a.5.5 0 1 1 1 0v4.112a.5.5 0 0 1-1 0v-4.112zm-1.165 7.325h68.477v46.254h-4.27v-42.333a.5.5 0 0 0-.5-.5h-10.78a.5.5 0 0 0-.5.5v42.333h-4.272v-42.333a.5.5 0 0 0-.5-.5h-10.781a.5.5 0 0 0-.5.5v42.333H204.4V219.177a.5.5 0 0 0-.5-.5h-10.782a.5.5 0 0 0-.5.5v42.333h-4.27v-42.333a.5.5 0 0 0-.5-.5h-10.782a.5.5 0 0 0-.5.5v42.333h-4.27v-46.254zm53.426 32.021v-3.767h9.782v3.767h-9.782zm9.782 5.767v3.766h-9.782v-3.766h9.782zm-9.782-15.3v-3.767h9.782v3.767h-9.782zm0-9.533v-3.767h9.782v3.767h-9.782zm-16.052 19.066v-3.767h9.781v3.767h-9.781zm9.781 5.767v3.766h-9.781v-3.766h9.781zm-9.781-15.3v-3.767h9.781v3.767h-9.781zm0-9.533v-3.767h9.781v3.767h-9.781zm-16.053 19.066v-3.767h9.782v3.767h-9.782zm9.782 5.767v3.766h-9.782v-3.766h9.782zm-9.782-15.3v-3.767h9.782v3.767h-9.782zm0-9.533v-3.767h9.782v3.767h-9.782zm-16.052 19.066v-3.767h9.781v3.767h-9.781zm9.781 5.767v3.766h-9.781v-3.766h9.781zm-9.781-15.3v-3.767h9.781v3.767h-9.781zm0-9.533v-3.767h9.781v3.767h-9.781zm3.43 127.132v-3.306h36.256v3.306h-36.255zm62.624-74.509c0 .008-.004.014-.004.022v110.578h-27.201v-35.091h1.337a.5.5 0 0 0 .5-.5v-4.306a.5.5 0 0 0-.5-.5h-37.255a.5.5 0 0 0-.5.5v4.306a.5.5 0 0 0 .5.5h1.337v35.09h-3.537v-13.647a.5.5 0 0 0-.5-.5H154.63V270.433h88.991v10.401zm325.367 20.89v62.188h-6.446v-62.188h6.446zm-2.03-3.74v-5.412a.5.5 0 1 1 1 0v5.412a.5.5 0 0 1-1 0zm-4.739-5.412a.5.5 0 1 1 1 0v5.412a.5.5 0 0 1-1 0v-5.412zm-4.738 0a.5.5 0 1 1 1 0v5.412a.5.5 0 0 1-1 0v-5.412zm-2.384 9.152h6.445v62.188h-6.445v-62.188zm-2.354-9.152a.5.5 0 1 1 1 0v5.412a.5.5 0 0 1-1 0v-5.412zm-4.738 0a.5.5 0 1 1 1 0v5.412a.5.5 0 0 1-1 0v-5.412zm-.354 9.152h6.446v62.188h-6.446v-62.188zm-4.384-9.152a.5.5 0 1 1 1 0v5.412a.5.5 0 0 1-1 0v-5.412zm-3.06 9.152h6.444v62.188h-6.445v-62.188zm-1.678-9.152a.5.5 0 1 1 1 0v5.412a.5.5 0 0 1-1 0v-5.412zm-4.738 0a.5.5 0 1 1 1 0v5.412a.5.5 0 0 1-1 0v-5.412zm-1.03 9.152h6.445v62.188h-6.445v-62.188zm-3.708-9.152a.5.5 0 1 1 1 0v5.412a.5.5 0 0 1-1 0v-5.412zm-3.737 9.152h6.445v62.188h-6.446l.001-62.188zm-5.91-118.118h4.91l-.001 171.66-4.908-29.636V183.606zm1.543 180.912-51.23.263h-.003a.5.5 0 0 1-.003-1l51.233-.263a.5.5 0 0 1 .003 1zm.497 6.432a.5.5 0 0 1-.497.502l-51.23.264h-.003a.5.5 0 0 1-.003-1l51.233-.264a.5.5 0 0 1 .5.498zm-51.466-13.605a.5.5 0 0 1 .498-.502l49.704-.256a.5.5 0 0 1 .003 1l-49.703.256h-.002a.5.5 0 0 1-.5-.498zm43.527-173.738h4.9v135.985l-4.9-29.587V183.607zm1.27 138.334h.003a.5.5 0 0 1 .003 1l-38.899.2h-.002a.5.5 0 0 1-.003-1l38.899-.2zm-38.315-6.238a.5.5 0 0 1 .497-.502l36.739-.189h.002a.5.5 0 0 1 .003 1l-36.739.189h-.002a.5.5 0 0 1-.5-.498zm39.396 13.162h.003a.5.5 0 0 1 .002 1l-41.06.212h-.002a.5.5 0 0 1-.002-1l41.06-.212zm1.08 6.935h.003a.5.5 0 0 1 .002 1l-43.22.222h-.002a.5.5 0 0 1-.003-1l43.22-.222zm-9.332-152.193h4.9v100.36l-4.9-29.59v-70.77zm1.77 103.684h.002a.5.5 0 0 1 .003 1l-28.095.144h-.002a.5.5 0 0 1-.003-1l28.095-.144zm-27.512-6.294a.5.5 0 0 1 .498-.502l25.933-.133h.003a.5.5 0 0 1 .002 1l-25.933.133h-.003a.5.5 0 0 1-.5-.498zm28.593 13.223h.002a.5.5 0 0 1 .002 1l-30.255.155h-.003a.5.5 0 0 1-.002-1l30.256-.155zm1.08 6.93h.002a.5.5 0 0 1 .003 1l-32.416.166h-.003a.5.5 0 0 1-.002-1l32.416-.167zm-15.743-137.86 11.649 14.38h-11.649v-14.38zm3.856 61.638c.286-.007.5.221.503.497a.5.5 0 0 1-.498.503l-8.643.044h-.003a.5.5 0 0 1-.002-1l8.643-.044zm-8.06-6.398a.5.5 0 0 1 .497-.502l6.483-.034h.002a.5.5 0 0 1 .003 1l-6.483.034h-.002a.5.5 0 0 1-.5-.498zm4.296-34.923h4.81v29.047l-4.81-29.047zm2.106 27.955a.5.5 0 0 1-.498.503l-4.321.022h-.003a.5.5 0 0 1-.002-1l4.321-.022a.521.521 0 0 1 .503.497zm-8.105 1.15v-29.105h4.82l-4.82 29.105zm.04 19.196 10.803-.056h.003a.5.5 0 0 1 .002 1l-10.803.056h-.003a.5.5 0 0 1-.002-1zm11.884 6.873h.002a.5.5 0 0 1 .003 1l-12.965.067h-.002a.5.5 0 0 1-.003-1l12.965-.067zm2.16 13.859h.003a.5.5 0 0 1 .003 1l-17.287.089h-.002a.5.5 0 0 1-.002-1l17.286-.09zm-16.702-6.344a.5.5 0 0 1 .497-.503l15.125-.077h.003a.5.5 0 0 1 .002 1l-15.125.077h-.002a.5.5 0 0 1-.5-.497zm17.783 13.273h.003a.5.5 0 0 1 .002 1l-19.447.1h-.003a.5.5 0 0 1-.002-1l19.447-.1zm-3.355-40.877v-35.085h4.91v64.731l-4.91-29.646zm-12.81.058-4.9 29.587v-64.73h4.9v35.143zm-4.365 47.864 21.613-.11h.002a.5.5 0 0 1 .003 1l-21.613.11h-.002a.5.5 0 0 1-.003-1zm11.887-62.479h.003a.5.5 0 0 1 .002 1l-2.161.012h-.002a.5.5 0 0 1-.003-1l2.161-.012zm-1.615-40.844v14.38h-11.648l11.648-14.38zm-11.352 110.263 23.773-.122h.003a.5.5 0 0 1 .002 1l-23.773.122h-.003a.5.5 0 0 1-.002-1zm-5.355-89.947h4.9v70.768l-4.9 29.587V183.607zm-.047 124.65 34.577-.179h.003a.5.5 0 0 1 .002 1l-34.577.178h-.002a.5.5 0 0 1-.003-1zm-5.863-124.65h4.91V290l-4.91 29.649V183.606zm.461 159.355 45.381-.233h.003a.5.5 0 0 1 .002 1l-45.38.233h-.003a.5.5 0 0 1-.003-1zm-1.08 6.936 47.544-.244a.5.5 0 0 1 .003 1l-47.542.244h-.003a.5.5 0 0 1-.002-1zm-5.282-166.292h4.9v142.08l-4.9 29.59v-171.67zm-9.393 45.539h3.5a.5.5 0 1 1 0 1h-3.5a.5.5 0 0 1 0-1zm-4.982 7.368h8.483a.5.5 0 0 1 0 1H451.9a.5.5 0 1 1 0-1zm0 7.369h8.483a.5.5 0 0 1 0 1H451.9a.5.5 0 1 1 0-1zm0 7.368h8.483a.5.5 0 0 1 0 1H451.9a.5.5 0 1 1 0-1zm0 7.369h8.483a.5.5 0 0 1 0 1H451.9a.5.5 0 0 1 0-1zm0 7.369h8.483a.5.5 0 1 1 0 1H451.9a.5.5 0 0 1 0-1zm0 7.368h8.483a.5.5 0 1 1 0 1H451.9a.5.5 0 0 1 0-1zm0 7.368h8.483a.5.5 0 0 1 0 1H451.9a.5.5 0 1 1 0-1zm0 7.369h8.483a.5.5 0 0 1 0 1H451.9a.5.5 0 1 1 0-1zm0 7.369h8.483a.5.5 0 0 1 0 1H451.9a.5.5 0 0 1 0-1zm0 7.368h8.483a.5.5 0 1 1 0 1H451.9a.5.5 0 0 1 0-1zm0 7.369h8.483a.5.5 0 1 1 0 1H451.9a.5.5 0 0 1 0-1zm0 7.369h8.483a.5.5 0 1 1 0 1H451.9a.5.5 0 0 1 0-1zm0 7.368h8.483a.5.5 0 0 1 0 1H451.9a.5.5 0 1 1 0-1zm0 7.368h8.483a.5.5 0 0 1 0 1H451.9a.5.5 0 1 1 0-1zm0 7.37h8.483a.5.5 0 1 1 0 1H451.9a.5.5 0 1 1 0-1zm0 7.368h8.483a.5.5 0 1 1 0 1H451.9a.5.5 0 0 1 0-1zm0 7.368h8.483a.5.5 0 1 1 0 1H451.9a.5.5 0 0 1 0-1zm0 7.369h8.483a.5.5 0 0 1 0 1H451.9a.5.5 0 1 1 0-1zm0 7.368h8.483a.5.5 0 0 1 0 1H451.9a.5.5 0 1 1 0-1zm-68.554-138.63h9.16c.006 0 .011-.004.017-.004h1.127l52.386.003v153.37h-6.077V237.013a.5.5 0 0 0-1 0v146.873h-6.077V237.013a.5.5 0 0 0-1 0v146.873h-6.077V237.013a.5.5 0 0 0-1 0v146.873h-6.076V237.013a.5.5 0 0 0-1 0v146.873h-6.078V237.013a.5.5 0 0 0-1 0v146.873h-6.076V237.013a.5.5 0 0 0-1 0v14.975a3.211 3.211 0 0 0-1.38-1.74l-4.7-2.836v-10.396a.5.5 0 1 0-1 0v9.792l-6.08-3.67v-6.122a.5.5 0 1 0-1 0v5.519l-4.402-2.657a3.446 3.446 0 0 0-1.667-.464v-8.898zm7.532 143.12a8.87 8.87 0 0 0-.462-1.29v-15.65c.471-.613.763-1.372.763-2.204s-.292-1.59-.763-2.203v-70.264c1.869.716 4.023.865 6.08.34v101.52h-6.08v-4.4a8.87 8.87 0 0 0 .462-1.29 8.889 8.889 0 0 0 0-4.559zm4.356-104.881a3.754 3.754 0 0 1-5.139 1.27l-.812-.488a3.748 3.748 0 0 1-1.27-5.138l2.836-4.698a3.74 3.74 0 0 1 5.137-1.274l.81.493c1.782 1.074 2.318 3.402 1.272 5.137l-2.834 4.698zm2.262 13.305c.774-.29 1.559-.717 2.125-1.105.01-.007.02-.01.03-.018a9.827 9.827 0 0 0 3.924-5.597v108.545h-6.08V282.061zm5.32-13.78c-.535-1.043-.36-.66-3.355-5.006.16-.63.198-1.488.013-2.25l3.82-6.33c.115-.19.207-.388.28-.59v-.004 16.148a9.83 9.83 0 0 0-.758-1.968zm-18.321-27.544.002.001.004.002 17.176 10.364a2.244 2.244 0 0 1 .76 3.074l-3.428 5.679a4.694 4.694 0 0 0-1.695-1.792l-.81-.492a4.739 4.739 0 0 0-6.511 1.613l-2.837 4.698a4.75 4.75 0 0 0 1.611 6.51l.813.49c.727.439 1.54.666 2.369.678l-.018.03.006-.011-.025.042-.03.05.004-.007-.032.053-5.817 9.63c-.654 1.093-2.082 1.365-3.063.76l-17.193-10.372c-.106-.064-.19-.15-.283-.228a2.23 2.23 0 0 1-.785-1.865c3.766-6.395 5.885-9.997 7.008-11.909-.796 1.373-.317.622 9.705-16.245.568-.963 1.97-1.415 3.069-.753zm-48.086 97.649c-1.116.601-2.483-.218-2.483-1.49v-14.984l29.997-50.93c.206.539.55 1.02 1.013 1.38.106.085.214.165.332.236l17.185 10.368c.306.184.669.32 1.013.392v28.468c0 .798-.506 1.533-1.097 1.85l-45.96 24.71zm45.937-23.562v28.595a5.811 5.811 0 0 1-2.64-4.859v-22.317l2.64-1.419zm-43.651 23.736v-.263l.004-.002.045-.025a.364.364 0 0 0 .023-.012l-.008.004c.025-.013.06-.031.1-.054l.218-.116a29.419 29.419 0 0 1 .03-.017l.035-.018-.024.013c1.731-.932 9.593-5.16 39.588-21.289v21.78a6.819 6.819 0 0 0 3.465 5.936 5.854 5.854 0 0 1 2.964 5.073v1.286h-52.87v-1.286a5.837 5.837 0 0 1 2.962-5.072 6.755 6.755 0 0 0 2.535-2.495 6.836 6.836 0 0 0 .933-3.443zm48.847 19.57c.688 0 1.325-.203 1.874-.535v12.89l-7.135-12.354h5.261zm0-7.273h-1.406v-1.29a6.83 6.83 0 0 0-2.786-5.489l-.004-.004v-29.86c.01-.007.016-.017.025-.025a3.115 3.115 0 0 0 1.095-2.363v-28.418c.926-.09 1.906-.668 2.433-1.543l.84-1.39c.461.371 1.097.795 1.677 1.095v69.822a3.602 3.602 0 0 0-1.874-.535zm-6.233-111.805c.043.075.082.153.125.23-3.086 5.238-1.124 1.9-47.505 80.655v-10.741l46.436-71.59c.326.448.659.95.944 1.446zm-1.595-2.281-45.788 70.593v-16.29l43.92-56.2c.671.58 1.298 1.213 1.868 1.897zm-2.646-2.526-43.139 55.201v-11.074l42.076-44.878c.365.235.718.488 1.063.751zm-7.028-3.077c1.798.312 3.518.924 5.088 1.8l-41.202 43.946v-16.22l27.04-22.108c.003-.002.005-.001.007-.003l2.274-1.862 6.793-5.553zm-18.774-8.591a7.297 7.297 0 0 0 6.41 3.82h2.05c4.02 0 7.29-3.271 7.29-7.29v-9.201c.02.03.045.058.065.088a10.154 10.154 0 0 1 1.774 5.722v13.24c0 .7-.086 1.383-.249 2.034l-.013.062-6.275 5.137-1.852 1.514c-.121.003-.242.004-.37.003h-2.8c-4.781 0-8.75-3.89-8.75-8.75v-6.06c.017-7.096-.041-7.159.047-8.115.16-1.73.75-3.396 1.791-4.873v9.197c0 1.256.32 2.44.882 3.472zm-3.72-1.549-4.257-7.381a2.251 2.251 0 0 1 0-2.24l5.754-9.98c.003-.004.008-.006.01-.01l.967-1.675c.02-.036.05-.065.072-.1.074-.113.154-.22.246-.317.043-.045.09-.085.137-.127a2.254 2.254 0 0 1 1.49-.582h13.47c.561 0 1.091.224 1.5.595.036.034.075.066.11.102.117.122.224.256.313.404.005.009.012.015.017.024l.967 1.676s.002 0 .002.002l4.24 7.34.68 1.182.004.004.844 1.461c.399.69.399 1.55 0 2.24l-4.257 7.374v-5.304c0-.369-.02-.734-.055-1.097-.55-5.627-5.356-10.054-11.102-10.054-5.679 0-10.541 4.36-11.097 10.054-.096.978-.038 1.103-.056 6.41zM317.12 162.76c.232.767.696 1.476 1.67 1.925a.5.5 0 0 0 .709-.494c-.231-2.833.302-4.815 1.768-6.429.31 1.869 1.371 3.256 2.442 4.655 1.584 2.072 1.427 4.641-.381 6.248a.504.504 0 0 0-.138.203h-5.071c-.008-.013-.005-.03-.014-.042-1.511-2.059-1.853-4.36-.985-6.066zm-2.06 11.292a3.378 3.378 0 0 1-3.374-3.375v-.81h18.041v.81a3.378 3.378 0 0 1-3.374 3.375H315.06zm3.755 3.924h-.7v-2.92h5.18v12.01c0 .547-.182 1.144-.656 1.681v-6.938c0-1.986-1.646-3.833-3.824-3.833zm-2.388 13.795a2.831 2.831 0 0 1-2.828-2.828v-7.134a2.831 2.831 0 0 1 2.828-2.828h2.384c1.6 0 2.825 1.347 2.825 2.825v7.14c0 1.524-1.273 2.82-2.82 2.82l-2.39.005zm-1.52 42.863a6.681 6.681 0 0 1 1.043-9.398c11.63-9.295 11.008-8.883 11.98-9.376a6.641 6.641 0 0 1 8.212 1.788 6.661 6.661 0 0 1-.342 8.735c-.637.681-11.46 9.264-11.562 9.344-2.856 2.234-7.024 1.795-9.332-1.093zm6.7 3.371c1.188-.23 2.453-.848 3.32-1.541 6.244-4.986 10.972-8.749 11.44-9.217.164-.165.315-.34.462-.517.03-.037.066-.07.096-.107l2.842 4.358a3084.818 3084.818 0 0 1-13.496 14.955l-4.664-7.93zm5.832 20.148-1.28-1.28a6.595 6.595 0 0 1-.214-9.09 3447.708 3447.708 0 0 0 14.679-16.253c.011-.013.025-.024.037-.037.352-.358.83-.567 1.325-.567h5.76c.018.087.046.171.066.258 1.043 4.509 5.033 7.522 9.483 7.522h1.945l-26.021 21.273a6.611 6.611 0 0 1-5.78-1.826zm2.96 25.875a.5.5 0 0 1 1 0v5.473a.5.5 0 0 1-1 0v-5.473zm-4.567 0a.5.5 0 0 1 1 0v5.473a.5.5 0 0 1-1 0v-5.473zm-4.568 0a.5.5 0 0 1 1 0v5.473a.5.5 0 0 1-1 0v-5.473zm-4.567 0a.5.5 0 0 1 1 0v5.473a.5.5 0 0 1-1 0v-5.473zm-4.567 0a.5.5 0 0 1 1 0v5.473a.5.5 0 0 1-1 0v-5.473zm-4.567 0a.5.5 0 0 1 1 0v5.473a.5.5 0 0 1-1 0v-5.473zm-4.568 0a.5.5 0 0 1 1 0v5.473a.5.5 0 0 1-1 0v-5.473zm-4.567 0a.5.5 0 0 1 1 0v5.473a.5.5 0 0 1-1 0v-5.473zm-4.568 0a.5.5 0 0 1 1 0v5.473a.5.5 0 0 1-1 0v-5.473zm-4.567 0a.5.5 0 0 1 1 0v5.473a.5.5 0 0 1-1 0v-5.473zm-4.567 0a.5.5 0 0 1 1 0v5.473a.5.5 0 0 1-1 0v-5.473zm-4.567 0a.5.5 0 0 1 1 0v5.473a.5.5 0 0 1-1 0v-5.473zm-4.568 0a.5.5 0 0 1 1 0v5.473a.5.5 0 0 1-1 0v-5.473zm-4.567 0a.5.5 0 0 1 1 0v5.473a.5.5 0 0 1-1 0v-5.473zm-4.567 0a.5.5 0 0 1 1 0v5.473a.5.5 0 0 1-1 0v-5.473zm-4.568 0a.5.5 0 0 1 1 0v5.473a.5.5 0 0 1-1 0v-5.473zm-4.567 0a.5.5 0 0 1 1 0v5.473a.5.5 0 0 1-1 0v-5.473zm-4.567 0a.5.5 0 0 1 1 0v5.473a.5.5 0 0 1-1 0v-5.473zm-4.567 0a.5.5 0 0 1 1 0v5.473a.5.5 0 0 1-1 0v-5.473zm81.047 100.55a3.02 3.02 0 0 0-3.016 3.017v3.839H244.62v-98.258h88.306v43.72c0 2.028 2.173 3.33 3.956 2.37l.794-.426a5.84 5.84 0 0 1-.778 2.66 5.766 5.766 0 0 1-2.162 2.127 6.839 6.839 0 0 0-3.47 5.943v1.287h-1.41a3.641 3.641 0 0 0-2.573 6.21 3.615 3.615 0 0 0 2.573 1.064h5.263l-7.71 13.35a8.903 8.903 0 0 0 0 8.87l2.44 4.227h-.614zm1.769 0-2.728-4.727a7.898 7.898 0 0 1 0-7.87l7.997-13.849h44.854l7.99 13.836c.003.006.003.013.006.019a7.87 7.87 0 0 1 0 7.86l-2.727 4.731h-55.392zm58.412-.692h-1.466l1.466-2.539v2.539zm69.929 7.548h-68.166v-3.839c0-1.12-.667-2.204-1.686-2.709h69.852v6.548zm-7.445-13.918a.5.5 0 1 1 0-1h8.483a.5.5 0 0 1 0 1H451.9zm78.342 13.918h-69.896v-7.759l5.607-4.57h58.68l5.61 4.57v7.759zm23.854-7.548h-22.85v-.45a.501.501 0 0 0-.184-.387l-5.393-4.393h28.427v5.23zm22.34 0h-6.45v-5.23h6.45v5.23zm0-6.23h-6.45v-9.445a.5.5 0 0 0-.5-.5h-14.89a.5.5 0 0 0-.5.5v9.445h-28.78v-12.744h51.12v12.744zm-.004-75.932v62.188h-6.445v-62.188h6.445zm-4.738-3.74v-5.412a.5.5 0 1 1 1 0v5.412a.5.5 0 0 1-1 0zm42.552 85.902h-36.81v-94.55c0-.006-.004-.01-.004-.017v-7.729a.5.5 0 0 0-.5-.5h-6.673a.5.5 0 0 0-.5.5v7.241h-3.444V264.98h47.93v118.907z"/><path d="m391.912 271.623.019-.031-.045.074.026-.043zm-52.799 66.449.005-.002-.005.002zm-.346.186.056-.03-.056.03zM338.695 338.297l.004-.002zM338.847 338.216l-.024.012.024-.012zm.1-.055-.087.047a.204.204 0 0 0-.013.008l.1-.055z"/></svg>