<svg xmlns="http://www.w3.org/2000/svg" viewBox="0 0 180 180"><path d="M91 28.6V17.4h-2v11.2c-36.5.5-66 30.4-66 67 0 3.6.3 7.2.8 10.6v.4l.1.3.1.4c0 .2.1.3.1.5l.2 1c1.2 6.2 3.3 12.2 6.3 17.8l.2.5.2.2s.2.3.2.4l.1.3.2.2c.1.3.3.5.4.7C43.7 149.7 66 162.6 90 162.6s46.3-12.9 58.1-33.7c.2-.3.3-.5.5-.8l.2-.2.1-.3c.1-.1.3-.5.3-.5l.2-.2.1-.4c1.2-2.3 2.3-4.8 3.3-7.4.2-.7.5-1.4.7-2 0-.1.2-.5.2-.5.1-.3.2-.7.3-1l.2-.5.3-.9.1-.4v-.1l.1-.5c0-.1.1-.2.1-.3 0-.1.1-.2.1-.4 1.4-5.5 2.2-11.2 2.2-17C157 59 127.5 29.2 91 28.6zm4.6 12.9v3.9H84.4v-3.9h11.2zm6 13.8 12.3 4H66l12.3-4c1.2-.4 2.1-1.5 2.1-2.8 0-.8-.3-1.6-.9-2.1L78 48.9l2.5-1.5h19l2.5 1.5-1.5 1.5c-.6.6-.9 1.3-.9 2.1 0 1.3.8 2.4 2 2.8zM72.5 90.2c-3.8-.3-7.4-1.8-10.4-4.4l-1.3-1.2h58.6l-1.3 1.2c-3 2.6-6.7 4.1-10.5 4.4H72.5zm28.3 2L97.7 113V92.2h3.1zm-8.5 36.5-.3-4.4h3.8v1.8l-.4 2.6h-3.1zm2.7 2-.8 5.5c-.1.5-.5.6-.7.6-.2 0-.6 0-.7-.6l-.4-5.4H95zm-3.2-8.4v-4.4h3.9v4.4h-3.9zm0-6.4v-4.4h3.9v4.4h-3.9zm0-6.4v-4.4h3.9v4.4h-3.9zm0-6.4v-4.4h3.9v4.4h-3.9zm0-6.4v-4.4h3.9v4.4h-3.9zm-2-4.5v4.5l-.3-4.5h.3zm-26.9-9.6v-7.9H69v7.9h-6.1zm8.1 0v-7.9h6v7.9h-6zm8 0v-7.9h6v7.9h-6zm8 0v-7.9h6v7.9h-6zm8 0v-7.9h6v7.9h-6zm8 0v-7.9h6v7.9h-6zm14.2 0H111v-7.9h6.1v7.9zm-57.5-9.9-6.4-3 6.4-3h60.6l6.4 3-6.4 3H59.7zm57.6-7.9H62.7l-1.5-3.5h57.6l-1.5 3.5zm-90.1 43.4c-.1-.3-.1-.7-.2-1 0-.1-.1-.3-.1-.4 0-.2-.1-.3-.1-.5v-.1c0-.1 0-.3-.1-.4-.5-3.3-.8-6.7-.8-10.2 0-35 28.1-63.4 63-64v7.8h-6.6v5.9h-2.5l-5.2 3.2 3.4 3.3c.2.2.3.4.3.7 0 .4-.3.8-.7.9l-19.4 6.3 2.3 5.1h-1.3l-10.7 5 10.7 5h1.6v7.9h-5.5l5.4 4.7c3.1 2.7 6.8 4.3 10.6 4.8l3.9 27.3c-5.4.7-9.6 4.8-10.6 10.1-.8-.4-1.6-.6-2.4-.6-1.7 0-3.3.8-4.3 2-2.1-2.5-5.3-4.1-8.6-4.1-1.6 0-3.2.3-4.6 1-.7-1.5-2.1-2.5-3.7-2.8.2-1 .3-1.9.3-2.9 0-7.5-6.3-13.6-13.9-13.3 0-.2-.1-.4-.2-.7zm7.2 19.2c-.2-.3-.4-.7-.6-1-.1-.2-.2-.3-.3-.5-.1-.2-.2-.3-.3-.5-2.4-4.5-4.2-9.3-5.4-14.4 6.3-.1 11.4 5 11.4 11.3 0 1.2-.2 2.4-.6 3.6l-.5 1.5 1.6-.2h.5c1.4 0 2.6 1 2.8 2.4l.2 1.5 1.3-.8c1.4-.9 3-1.3 4.7-1.3 3.2 0 6.1 1.7 7.8 4.4l1 1.7.8-1.8c.6-1.4 1.9-2.2 3.4-2.2.9 0 1.8.4 2.5 1l1.6 1.5.1-2.2c.2-5.2 4.1-9.3 9.1-9.9l2.4 16.9c-2.8-1.9-6.2-3-9.8-3-5.5 0-10.6 2.5-13.9 6.8-1.7-1.5-3.9-2.4-6.2-2.4-1.3 0-2.5.3-3.6.7-3.9-4-7.2-8.3-10-13.1zm45.5 31.4c-13.1-2.1-24.8-8.1-34-16.8.6-.2 1.3-.3 2-.3 2.1 0 4.2.9 5.6 2.6l.9 1 .7-1.1c2.9-4.4 7.8-7 13-7 3.9 0 7.5 1.4 10.2 3.9l1.6 11.3v6.4zm3.9.5c-.6-.1-1.2-.1-1.8-.2v-6.8l-8.6-60.1h3.8l6.7 60.2v6.9zm4.4.3c-.8 0-1.6-.1-2.4-.1v-7.1l-6.7-60.1h3l6.1 60.4v6.9zm9.9-.5c-2.6.3-5.2.5-7.9.5v-7.1l-6.1-60.3h3.3l3.5 44.1c.1 1.6 1.4 2.5 2.7 2.5 1.3 0 2.4-.9 2.6-2.3l6.7-44.3h3.8l-8.6 59.9v7zm2-.3v-6.4l.8-5.3c.3 0 .6-.1.9-.1 2.1 0 4.1.8 5.6 2.3l1.9 1.9-.2-2.7v-1.1c0-6.9 5.6-12.4 12.4-12.4 3.8 0 7.3 1.7 9.7 4.6l1 1.2.7-1.4c1.8-3.6 5.2-6 9.1-6.5-9.8 13.6-24.7 23.2-41.9 25.9zm51.8-46.9c0 .1-.1.2-.1.3v.2c-.1.2-.1.3-.1.5 0 .1-.1.2-.1.3-.1.3-.2.7-.3 1-.1.2-.1.4-.2.6-.1.3-.2.7-.3 1 0 .1-.1.2-.1.3-.2.7-.5 1.3-.7 2-.9 2.5-2 4.9-3.3 7.2-.1.2-.2.3-.2.5-.1.2-.2.3-.3.5-.2.3-.4.7-.6 1-.7 1.2-1.4 2.3-2.1 3.4-4.8.1-9.1 2.6-11.7 6.6-2.7-2.8-6.4-4.3-10.3-4.3-7.6 0-13.9 6-14.4 13.5-1.6-1-3.4-1.5-5.3-1.5h-.7l3.6-25.2c2.6 1.1 4.6 3.4 5.3 6.2l.3 1.1 1-.4c2.7-1 5.6-.2 7.4 1.8l2.4 2.7-.6-3.5c-.1-.8-.2-1.6-.2-2.4 0-7.7 6.3-14 14-14 2.9 0 5.7.9 8.1 2.6l1.1.8.4-1.3c1.3-4.6 5-8.1 9.5-9.3-.3 2.6-.8 5.2-1.5 7.8zm1.8-10.1c-5.1 1.1-9.3 4.7-11.2 9.6-2.5-1.5-5.3-2.2-8.1-2.2-8.8 0-16 7.2-16 16v.3c-1.9-1.2-4.4-1.6-6.7-1-1.2-3.1-3.6-5.6-6.7-6.7l3.7-25.7c3.8-.5 7.5-2.1 10.6-4.8l5.4-4.7h-5.5v-7.9h1.6l10.7-5-10.7-5h-1.3l2.3-5.1-19.5-6.3c-.4-.1-.7-.5-.7-.9 0-.3.1-.5.3-.7l3.4-3.3-5.2-3.2h-2.5v-5.9H91v-7.8c34.9.5 63 29 63 64 0 2.2-.1 4.3-.3 6.3z"/></svg>